<svg width="269" height="280" viewBox="0 0 269 280" fill="none" xmlns="http://www.w3.org/2000/svg">
<path d="M128.741 258.19C193.318 258.19 245.669 205.574 245.669 140.669C245.669 75.7644 193.318 23.1484 128.741 23.1484C64.1632 23.1484 11.8127 75.7644 11.8127 140.669C11.8127 205.574 64.1632 258.19 128.741 258.19Z" fill="#FA9E42"/>
<g filter="url(#filter0_f_7_10859)">
<path d="M120.291 123.957C159.152 103.316 180.888 68.194 168.84 45.5096C156.791 22.8253 115.52 21.1688 76.6592 41.8097C37.798 62.4506 16.0621 97.5726 28.1107 120.257C40.1594 142.941 81.43 144.598 120.291 123.957Z" fill="#F8E36F"/>
</g>
<path d="M116.075 20.7525C130.915 19.1688 145.922 20.4357 160.287 24.4851C167.295 26.4617 174.108 29.0771 180.638 32.2984C207.285 45.4559 228.135 67.9904 239.185 95.5777C245.092 110.356 248.076 126.14 247.972 142.055C247.746 173.419 235.3 203.46 213.278 225.794C207.865 231.275 201.931 236.216 195.559 240.546C179.428 251.472 160.841 258.231 141.46 260.22C122.078 262.208 102.506 259.364 84.4927 251.941C63.6526 243.32 45.6501 229.024 32.5328 210.679C51.6335 218.89 72.7693 221.142 93.1712 217.137C100.062 215.799 106.801 213.77 113.285 211.081C125.794 205.88 137.157 198.266 146.724 188.675C160.948 174.44 170.739 156.386 174.91 136.7C176.316 130.033 177.059 123.244 177.128 116.431C177.269 100.822 173.917 85.3784 167.316 71.2328C160.329 56.3315 149.888 43.3116 136.86 33.2542C130.442 28.2927 123.468 24.0959 116.078 20.7488L116.075 20.7525Z" fill="#713FFD"/>
<defs>
<filter id="filter0_f_7_10859" x="4.78674" y="7.35059" width="187.377" height="151.065" filterUnits="userSpaceOnUse" color-interpolation-filters="sRGB">
<feFlood flood-opacity="0" result="BackgroundImageFix"/>
<feBlend mode="normal" in="SourceGraphic" in2="BackgroundImageFix" result="shape"/>
<feGaussianBlur stdDeviation="10" result="effect1_foregroundBlur_7_10859"/>
</filter>
</defs>
</svg>
