<svg width="439" height="311" viewBox="0 0 439 311" fill="none" xmlns="http://www.w3.org/2000/svg">
<path d="M103.268 6.72311C110.278 6.72136 117.27 7.42963 124.137 8.83711C137.39 11.5668 149.974 16.8888 161.164 24.4971C176.667 35.0048 189.053 49.4945 197.021 66.4436C204.989 83.3926 208.244 102.175 206.444 120.817C204.644 139.458 197.856 157.271 186.793 172.383C175.73 187.495 160.801 199.347 143.574 206.695C137.312 209.356 130.8 211.388 124.136 212.76C109.685 215.69 94.7754 215.508 80.4005 212.224C66.0257 208.941 52.5155 202.632 40.77 193.718C29.0244 184.804 19.3132 173.489 12.2832 160.528C5.25319 147.566 1.06578 133.256 -7.62939e-05 118.549C11.3314 121.201 23.1023 121.372 34.5059 119.049C44.7389 116.953 54.4592 112.863 63.1119 107.012C75.9742 98.3288 86.0422 86.1017 92.0959 71.8121C94.1414 66.9726 95.7027 61.9424 96.7569 56.7951C99.004 45.7664 98.9209 34.3898 96.5129 23.3951C95.3016 17.8974 93.5102 12.5437 91.1689 7.42412C95.185 6.95677 99.2248 6.7227 103.268 6.72311Z" fill="#713FFD"/>
<g filter="url(#filter0_f_7_11206)">
<path d="M173.339 38.8961C150.095 17.9666 119.644 13.8914 105.325 29.7938C91.0065 45.6962 98.2424 75.5544 121.487 96.4839C144.732 117.413 175.182 121.489 189.501 105.586C203.82 89.6838 196.584 59.8256 173.339 38.8961Z" fill="#A586FC"/>
</g>
<g filter="url(#filter1_d_7_11206)">
<path d="M308.345 279H116.913C98.3426 278.986 80.4976 271.789 67.1137 258.915C53.7298 246.041 45.8447 228.489 45.1092 209.933C44.3737 191.377 50.8448 173.256 63.1677 159.364C75.4906 145.471 92.71 136.884 111.221 135.4C113.861 116.76 122.278 99.4166 135.289 85.8099C148.299 72.2032 165.248 63.0179 183.752 59.5463C202.255 56.0747 221.381 58.4915 238.439 66.4567C255.497 74.4218 269.628 87.5345 278.845 103.95C295.75 98.098 314.015 97.4142 331.311 101.986C348.606 106.558 364.148 116.178 375.953 129.619C387.759 143.06 395.293 159.713 397.594 177.453C399.896 195.194 396.861 213.218 388.877 229.227C384.192 243.69 375.045 256.298 362.749 265.24C350.453 274.182 335.641 278.999 320.437 279H308.345Z" fill="url(#paint0_linear_7_11206)"/>
<path d="M320.437 278C328.156 278 335.746 276.767 342.996 274.336C350.006 271.985 356.587 268.555 362.557 264.14C368.458 259.776 373.631 254.548 377.932 248.602C382.287 242.582 385.649 235.96 387.925 228.919L387.949 228.847L387.983 228.779C391.01 222.731 393.341 216.333 394.911 209.763C396.526 203.003 397.345 196.017 397.345 188.999C397.345 182.96 396.737 176.925 395.537 171.062C394.368 165.348 392.623 159.728 390.352 154.357C388.121 149.084 385.36 143.997 382.146 139.24C378.962 134.527 375.305 130.095 371.278 126.067C367.25 122.039 362.818 118.383 358.105 115.199C353.347 111.984 348.261 109.224 342.988 106.993C337.617 104.722 331.997 102.977 326.283 101.808C320.42 100.608 314.384 99.9995 308.345 99.9995C298.346 99.9995 288.531 101.645 279.172 104.891L278.383 105.165L277.973 104.436C270.357 90.8942 259.279 79.5216 245.937 71.5478C239.189 67.5152 231.94 64.399 224.391 62.2857C216.602 60.1055 208.512 59 200.345 59C189.361 59 178.638 60.977 168.475 64.876C158.657 68.6427 149.65 74.0837 141.705 81.048C133.806 87.9722 127.251 96.1422 122.221 105.331C117.069 114.745 113.701 124.907 112.211 135.535L112.1 136.33L111.299 136.393C102.341 137.094 93.7219 139.453 85.6818 143.403C77.8694 147.242 70.8932 152.434 64.947 158.834C52.7289 171.987 46 189.123 46 207.087C46 216.66 47.8748 225.947 51.5723 234.689C53.3495 238.891 55.5491 242.943 58.1102 246.734C60.6472 250.489 63.5607 254.02 66.7699 257.23C69.9791 260.439 73.5104 263.352 77.2655 265.889C81.0565 268.45 85.109 270.65 89.3106 272.427C98.0525 276.125 107.339 278 116.913 278H308.345H320.437ZM320.437 279H308.345H116.913C77.1966 279 45 246.803 45 207.087C45 169.286 74.1646 138.297 111.221 135.396C117.35 91.6574 154.917 58 200.345 58C234.048 58 263.422 76.5231 278.845 103.946C288.087 100.741 298.012 98.9995 308.345 98.9995C358.051 98.9995 398.345 139.294 398.345 188.999C398.345 203.459 394.936 217.121 388.877 229.227C379.54 258.109 352.427 279 320.437 279Z" fill="white" fill-opacity="0.5"/>
</g>
<defs>
<filter id="filter0_f_7_11206" x="77.9736" y="0.0932617" width="138.879" height="135.194" filterUnits="userSpaceOnUse" color-interpolation-filters="sRGB">
<feFlood flood-opacity="0" result="BackgroundImageFix"/>
<feBlend mode="normal" in="SourceGraphic" in2="BackgroundImageFix" result="shape"/>
<feGaussianBlur stdDeviation="10" result="effect1_foregroundBlur_7_11206"/>
</filter>
<filter id="filter1_d_7_11206" x="25" y="30" width="413.345" height="281" filterUnits="userSpaceOnUse" color-interpolation-filters="sRGB">
<feFlood flood-opacity="0" result="BackgroundImageFix"/>
<feColorMatrix in="SourceAlpha" type="matrix" values="0 0 0 0 0 0 0 0 0 0 0 0 0 0 0 0 0 0 127 0" result="hardAlpha"/>
<feOffset dx="10" dy="2"/>
<feGaussianBlur stdDeviation="15"/>
<feColorMatrix type="matrix" values="0 0 0 0 0.258824 0 0 0 0 0.627451 0 0 0 0 0.941176 0 0 0 0.596 0"/>
<feBlend mode="normal" in2="BackgroundImageFix" result="effect1_dropShadow_7_11206"/>
<feBlend mode="normal" in="SourceGraphic" in2="effect1_dropShadow_7_11206" result="shape"/>
</filter>
<linearGradient id="paint0_linear_7_11206" x1="221.698" y1="58.0024" x2="324.341" y2="306.166" gradientUnits="userSpaceOnUse">
<stop stop-color="white" stop-opacity="0.604"/>
<stop offset="1" stop-color="white" stop-opacity="0.2"/>
</linearGradient>
</defs>
</svg>
