<svg width="414" height="345" viewBox="0 0 414 345" fill="none" xmlns="http://www.w3.org/2000/svg">
<path d="M116.978 171.357C117.694 171.375 124.96 196.605 124.96 206.409C124.96 216.213 121.386 224.162 116.978 224.162C112.57 224.162 108.996 216.214 108.996 206.41C108.996 196.606 116.262 171.34 116.978 171.357Z" fill="#42A0F0"/>
<path d="M113.121 209.409C114.287 209.766 115.823 208.123 116.552 205.74C117.28 203.357 116.926 201.136 115.759 200.779C114.593 200.423 113.057 202.066 112.329 204.449C111.6 206.832 111.955 209.053 113.121 209.409Z" fill="white"/>
<path d="M172.369 171.357C173.085 171.375 180.351 196.605 180.351 206.409C180.351 216.213 176.777 224.162 172.369 224.162C167.961 224.162 164.387 216.214 164.387 206.41C164.387 196.606 171.653 171.34 172.369 171.357Z" fill="#42A0F0"/>
<path d="M168.512 209.409C169.678 209.766 171.214 208.123 171.943 205.74C172.671 203.357 172.317 201.136 171.15 200.779C169.984 200.423 168.448 202.066 167.72 204.449C166.991 206.832 167.346 209.053 168.512 209.409Z" fill="white"/>
<path d="M231.796 171.357C232.512 171.375 239.778 196.605 239.778 206.409C239.778 216.213 236.204 224.162 231.796 224.162C227.388 224.162 223.814 216.214 223.814 206.41C223.814 196.606 231.08 171.34 231.796 171.357Z" fill="#42A0F0"/>
<path d="M227.939 209.409C229.105 209.766 230.641 208.123 231.37 205.74C232.098 203.357 231.744 201.136 230.577 200.779C229.411 200.423 227.875 202.066 227.147 204.449C226.418 206.832 226.773 209.053 227.939 209.409Z" fill="white"/>
<path d="M286.683 168.357C287.399 168.375 294.665 193.605 294.665 203.409C294.665 213.213 291.091 221.162 286.683 221.162C282.275 221.162 278.701 213.214 278.701 203.41C278.701 193.606 285.967 168.34 286.683 168.357Z" fill="#42A0F0"/>
<path d="M282.826 206.409C283.992 206.766 285.528 205.123 286.257 202.74C286.985 200.357 286.631 198.136 285.465 197.779C284.298 197.423 282.762 199.066 282.034 201.449C281.305 203.832 281.66 206.053 282.826 206.409Z" fill="white"/>
<path d="M200.335 238.357C201.051 238.375 208.317 263.605 208.317 273.409C208.317 283.213 204.743 291.162 200.335 291.162C195.927 291.162 192.353 283.214 192.353 273.41C192.353 263.606 199.619 238.34 200.335 238.357Z" fill="#42A0F0"/>
<path d="M196.478 276.409C197.644 276.766 199.18 275.123 199.909 272.74C200.637 270.357 200.283 268.136 199.116 267.779C197.95 267.423 196.414 269.066 195.686 271.449C194.957 273.832 195.312 276.053 196.478 276.409Z" fill="white"/>
<path d="M259.761 238.357C260.477 238.375 267.743 263.605 267.743 273.409C267.743 283.213 264.169 291.162 259.761 291.162C255.353 291.162 251.779 283.214 251.779 273.41C251.779 263.606 259.045 238.34 259.761 238.357Z" fill="#42A0F0"/>
<path d="M255.904 276.409C257.07 276.766 258.606 275.123 259.335 272.74C260.063 270.357 259.709 268.136 258.542 267.779C257.376 267.423 255.84 269.066 255.112 271.449C254.383 273.832 254.738 276.053 255.904 276.409Z" fill="white"/>
<path d="M322.683 238.357C323.399 238.375 330.665 263.605 330.665 273.409C330.665 283.213 327.091 291.162 322.683 291.162C318.275 291.162 314.701 283.214 314.701 273.41C314.701 263.606 321.967 238.34 322.683 238.357Z" fill="#42A0F0"/>
<path d="M318.826 276.409C319.992 276.766 321.528 275.123 322.257 272.74C322.985 270.357 322.631 268.136 321.465 267.779C320.298 267.423 318.762 269.066 318.034 271.449C317.305 273.832 317.66 276.053 318.826 276.409Z" fill="white"/>
<path d="M140.909 241.357C141.625 241.375 148.891 266.605 148.891 276.409C148.891 286.213 145.317 294.162 140.909 294.162C136.501 294.162 132.927 286.214 132.927 276.41C132.927 266.606 140.193 241.34 140.909 241.357Z" fill="#42A0F0"/>
<path d="M137.052 279.409C138.218 279.766 139.754 278.123 140.483 275.74C141.211 273.357 140.857 271.136 139.691 270.779C138.524 270.423 136.988 272.066 136.26 274.449C135.531 276.832 135.886 279.053 137.052 279.409Z" fill="white"/>
<path d="M84.978 238.357C85.694 238.375 92.96 263.605 92.96 273.409C92.96 283.213 89.386 291.162 84.978 291.162C80.57 291.162 76.996 283.214 76.996 273.41C76.996 263.606 84.262 238.34 84.978 238.357Z" fill="#42A0F0"/>
<path d="M81.1211 276.409C82.2873 276.766 83.8232 275.123 84.5518 272.74C85.2804 270.357 84.9256 268.136 83.7595 267.779C82.5933 267.423 81.0573 269.066 80.3288 271.449C79.6002 273.832 79.9549 276.053 81.1211 276.409Z" fill="white"/>
<path d="M116.978 291.357C117.694 291.375 124.96 316.605 124.96 326.409C124.96 336.213 121.386 344.162 116.978 344.162C112.57 344.162 108.996 336.214 108.996 326.41C108.996 316.606 116.262 291.34 116.978 291.357Z" fill="#42A0F0"/>
<path d="M113.121 329.409C114.287 329.766 115.823 328.123 116.552 325.74C117.28 323.357 116.926 321.136 115.759 320.779C114.593 320.423 113.057 322.066 112.329 324.449C111.6 326.832 111.955 329.053 113.121 329.409Z" fill="white"/>
<path d="M172.369 291.357C173.085 291.375 180.351 316.605 180.351 326.409C180.351 336.213 176.777 344.162 172.369 344.162C167.961 344.162 164.387 336.214 164.387 326.41C164.387 316.606 171.653 291.34 172.369 291.357Z" fill="#42A0F0"/>
<path d="M168.512 329.409C169.678 329.766 171.214 328.123 171.943 325.74C172.671 323.357 172.317 321.136 171.15 320.779C169.984 320.423 168.448 322.066 167.72 324.449C166.991 326.832 167.346 329.053 168.512 329.409Z" fill="white"/>
<path d="M231.796 291.357C232.512 291.375 239.778 316.605 239.778 326.409C239.778 336.213 236.204 344.162 231.796 344.162C227.388 344.162 223.814 336.214 223.814 326.41C223.814 316.606 231.08 291.34 231.796 291.357Z" fill="#42A0F0"/>
<path d="M227.939 329.409C229.105 329.766 230.641 328.123 231.37 325.74C232.098 323.357 231.744 321.136 230.577 320.779C229.411 320.423 227.875 322.066 227.147 324.449C226.418 326.832 226.773 329.053 227.939 329.409Z" fill="white"/>
<path d="M286.683 291.357C287.399 291.375 294.665 316.605 294.665 326.409C294.665 336.213 291.091 344.162 286.683 344.162C282.275 344.162 278.701 336.214 278.701 326.41C278.701 316.606 285.967 291.34 286.683 291.357Z" fill="#42A0F0"/>
<path d="M282.826 329.409C283.992 329.766 285.528 328.123 286.257 325.74C286.985 323.357 286.631 321.136 285.465 320.779C284.298 320.423 282.762 322.066 282.034 324.449C281.305 326.832 281.66 329.053 282.826 329.409Z" fill="white"/>
<g filter="url(#filter0_d_7_11259)">
<path d="M283.345 249H91.913C73.3426 248.986 55.4975 241.789 42.1136 228.915C28.7297 216.041 20.8447 198.489 20.1092 179.933C19.3736 161.377 25.8447 143.256 38.1676 129.364C50.4906 115.471 67.7099 106.884 86.221 105.4C88.8608 86.7599 97.278 69.4166 110.289 55.8099C123.299 42.2032 140.248 33.0179 158.752 29.5463C177.255 26.0747 196.381 28.4915 213.439 36.4567C230.497 44.4218 244.628 57.5345 253.845 73.9499C270.75 68.0981 289.015 67.4142 306.31 71.9856C323.605 76.557 339.146 86.1764 350.952 99.6169C362.757 113.057 370.292 129.71 372.594 147.45C374.896 165.19 371.862 183.214 363.879 199.223C359.194 213.688 350.047 226.296 337.751 235.239C325.455 244.182 310.641 249 295.437 249H283.345Z" fill="url(#paint0_linear_7_11259)"/>
<path d="M295.437 248C303.157 248 310.748 246.767 317.998 244.336C325.009 241.985 331.59 238.554 337.56 234.139C343.462 229.775 348.635 224.547 352.936 218.6C357.29 212.58 360.652 205.957 362.928 198.915L362.951 198.843L362.985 198.775C366.011 192.728 368.341 186.33 369.911 179.761C371.526 173 372.345 166.015 372.345 158.999C372.345 152.96 371.737 146.925 370.537 141.062C369.368 135.348 367.623 129.728 365.352 124.357C363.121 119.084 360.361 113.997 357.146 109.24C353.962 104.527 350.306 100.095 346.278 96.0672C342.25 92.0395 337.819 88.3828 333.106 85.1988C328.348 81.9845 323.261 79.2237 317.988 76.9932C312.617 74.7216 306.997 72.9769 301.283 71.8077C295.42 70.6079 289.385 69.9995 283.345 69.9995C273.346 69.9995 263.531 71.6452 254.172 74.8908L253.383 75.1646L252.973 74.4362C245.357 60.8943 234.279 49.5217 220.937 41.5479C214.189 37.5153 206.94 34.399 199.391 32.2857C191.602 30.1055 183.512 29 175.345 29C164.361 29 153.638 30.977 143.475 34.876C133.657 38.6427 124.65 44.0837 116.705 51.048C108.806 57.9722 102.251 66.1422 97.2213 75.3308C92.0685 84.7451 88.7006 94.9073 87.2113 105.535L87.0998 106.33L86.299 106.393C77.3408 107.094 68.7219 109.453 60.6818 113.403C52.8694 117.242 45.8932 122.434 39.947 128.834C27.7289 141.987 21 159.123 21 177.087C21 186.66 22.8748 195.947 26.5723 204.689C28.3495 208.891 30.5491 212.943 33.1102 216.734C35.6472 220.489 38.5607 224.02 41.7699 227.23C44.9791 230.439 48.5104 233.352 52.2655 235.889C56.0565 238.45 60.109 240.65 64.3106 242.427C73.0525 246.125 82.3391 248 91.9127 248H283.345H295.437ZM295.437 249H283.345H91.9127C52.1966 249 20 216.803 20 177.087C20 139.286 49.1646 108.297 86.221 105.396C92.3504 61.6574 129.917 28 175.345 28C209.048 28 238.422 46.5232 253.845 73.946C263.087 70.7407 273.012 68.9995 283.345 68.9995C333.051 68.9995 373.345 109.294 373.345 158.999C373.345 173.456 369.936 187.118 363.879 199.223C354.544 228.108 327.431 249 295.437 249Z" fill="white" fill-opacity="0.5"/>
</g>
<defs>
<filter id="filter0_d_7_11259" x="0" y="0" width="413.345" height="281" filterUnits="userSpaceOnUse" color-interpolation-filters="sRGB">
<feFlood flood-opacity="0" result="BackgroundImageFix"/>
<feColorMatrix in="SourceAlpha" type="matrix" values="0 0 0 0 0 0 0 0 0 0 0 0 0 0 0 0 0 0 127 0" result="hardAlpha"/>
<feOffset dx="10" dy="2"/>
<feGaussianBlur stdDeviation="15"/>
<feColorMatrix type="matrix" values="0 0 0 0 0.258824 0 0 0 0 0.627451 0 0 0 0 0.941176 0 0 0 0.596 0"/>
<feBlend mode="normal" in2="BackgroundImageFix" result="effect1_dropShadow_7_11259"/>
<feBlend mode="normal" in="SourceGraphic" in2="effect1_dropShadow_7_11259" result="shape"/>
</filter>
<linearGradient id="paint0_linear_7_11259" x1="196.698" y1="28.0024" x2="299.341" y2="276.166" gradientUnits="userSpaceOnUse">
<stop stop-color="white" stop-opacity="0.604"/>
<stop offset="1" stop-color="white" stop-opacity="0.2"/>
</linearGradient>
</defs>
</svg>
