<svg width="433" height="342" viewBox="0 0 433 342" fill="none" xmlns="http://www.w3.org/2000/svg">
<path d="M123.701 218.359C124.332 218.377 130.736 243.607 130.736 253.411C130.736 263.215 127.586 271.164 123.701 271.164C119.816 271.164 116.666 263.216 116.666 253.412C116.666 243.608 123.066 218.342 123.701 218.359Z" fill="#42A0F0"/>
<path d="M122.628 247.781C123.656 248.138 123.968 250.359 123.326 252.742C122.685 255.125 121.33 256.767 120.303 256.411C119.275 256.055 118.962 253.834 119.604 251.45C120.247 249.067 121.6 247.425 122.628 247.781Z" fill="white"/>
<path d="M183.632 218.359C184.263 218.377 190.667 243.607 190.667 253.411C190.667 263.215 187.517 271.164 183.632 271.164C179.747 271.164 176.597 263.216 176.597 253.412C176.597 243.608 182.997 218.342 183.632 218.359Z" fill="#42A0F0"/>
<path d="M182.559 247.781C183.587 248.138 183.899 250.359 183.257 252.742C182.615 255.125 181.261 256.767 180.233 256.411C179.206 256.055 178.892 253.834 179.535 251.45C180.178 249.067 181.53 247.425 182.559 247.781Z" fill="white"/>
<path d="M243.563 218.359C244.194 218.377 250.598 243.607 250.598 253.411C250.598 263.215 247.448 271.164 243.563 271.164C239.678 271.164 236.528 263.216 236.528 253.412C236.528 243.608 242.928 218.342 243.563 218.359Z" fill="#42A0F0"/>
<path d="M242.49 247.781C243.518 248.138 243.83 250.359 243.188 252.742C242.547 255.125 241.192 256.767 240.165 256.411C239.137 256.055 238.824 253.834 239.466 251.45C240.109 249.067 241.462 247.425 242.49 247.781Z" fill="white"/>
<path d="M303.494 215.359C304.125 215.377 310.529 240.607 310.529 250.411C310.529 260.215 307.379 268.164 303.494 268.164C299.609 268.164 296.459 260.216 296.459 250.412C296.459 240.608 302.859 215.342 303.494 215.359Z" fill="#42A0F0"/>
<path d="M302.421 244.781C303.449 245.138 303.761 247.359 303.119 249.742C302.477 252.125 301.123 253.767 300.095 253.411C299.068 253.055 298.755 250.834 299.397 248.45C300.04 246.067 301.393 244.425 302.421 244.781Z" fill="white"/>
<path d="M211.834 285.359C212.465 285.377 218.869 310.607 218.869 320.411C218.869 330.215 215.719 338.164 211.834 338.164C207.949 338.164 204.799 330.216 204.799 320.412C204.799 310.608 211.199 285.342 211.834 285.359Z" fill="#42A0F0"/>
<path d="M210.761 314.781C211.789 315.138 212.101 317.359 211.459 319.742C210.818 322.125 209.463 323.767 208.436 323.411C207.408 323.055 207.095 320.834 207.737 318.45C208.38 316.067 209.733 314.425 210.761 314.781Z" fill="white"/>
<path d="M271.765 285.359C272.396 285.377 278.8 310.607 278.8 320.411C278.8 330.215 275.65 338.164 271.765 338.164C267.88 338.164 264.73 330.216 264.73 320.412C264.73 310.608 271.13 285.342 271.765 285.359Z" fill="#42A0F0"/>
<path d="M270.692 314.781C271.72 315.138 272.032 317.359 271.39 319.742C270.748 322.125 269.394 323.767 268.366 323.411C267.339 323.055 267.026 320.834 267.668 318.45C268.311 316.067 269.664 314.425 270.692 314.781Z" fill="white"/>
<path d="M335.222 285.359C335.853 285.377 342.257 310.607 342.257 320.411C342.257 330.215 339.107 338.164 335.222 338.164C331.337 338.164 328.187 330.216 328.187 320.412C328.187 310.608 334.587 285.342 335.222 285.359Z" fill="#42A0F0"/>
<path d="M334.149 314.781C335.177 315.138 335.489 317.359 334.847 319.742C334.206 322.125 332.851 323.767 331.824 323.411C330.796 323.055 330.483 320.834 331.125 318.45C331.768 316.067 333.121 314.425 334.149 314.781Z" fill="white"/>
<path d="M151.904 288.359C152.535 288.377 158.939 313.607 158.939 323.411C158.939 333.215 155.789 341.164 151.904 341.164C148.019 341.164 144.869 333.216 144.869 323.412C144.869 313.608 151.269 288.342 151.904 288.359Z" fill="#42A0F0"/>
<path d="M150.831 317.781C151.859 318.138 152.171 320.359 151.529 322.742C150.887 325.125 149.533 326.767 148.505 326.411C147.478 326.055 147.164 323.834 147.807 321.45C148.45 319.067 149.802 317.425 150.831 317.781Z" fill="white"/>
<path d="M95.498 285.359C96.129 285.377 102.533 310.607 102.533 320.411C102.533 330.215 99.383 338.164 95.498 338.164C91.613 338.164 88.463 330.216 88.463 320.412C88.463 310.608 94.863 285.342 95.498 285.359Z" fill="#42A0F0"/>
<path d="M94.4252 314.781C95.4527 315.138 95.7652 317.359 95.1233 319.742C94.4814 322.125 93.1272 323.767 92.0994 323.411C91.0716 323.055 90.7584 320.834 91.4013 318.45C92.0442 316.067 93.3964 314.425 94.4252 314.781Z" fill="white"/>
<path d="M103.268 6.72311C110.278 6.72136 117.27 7.42963 124.137 8.83711C137.39 11.5668 149.974 16.8888 161.164 24.4971C176.667 35.0048 189.053 49.4945 197.021 66.4436C204.989 83.3926 208.244 102.175 206.444 120.817C204.644 139.458 197.856 157.271 186.793 172.383C175.73 187.495 160.801 199.347 143.574 206.695C137.312 209.356 130.8 211.388 124.136 212.76C109.685 215.69 94.7754 215.508 80.4005 212.224C66.0257 208.941 52.5155 202.632 40.77 193.718C29.0244 184.804 19.3132 173.489 12.2832 160.528C5.25319 147.566 1.06578 133.256 -7.62939e-05 118.549C11.3314 121.201 23.1023 121.372 34.5059 119.049C44.7389 116.953 54.4592 112.863 63.1119 107.012C75.9742 98.3288 86.0422 86.1017 92.0959 71.8121C94.1414 66.9726 95.7027 61.9424 96.7569 56.7951C99.004 45.7664 98.9209 34.3898 96.5129 23.3951C95.3016 17.8974 93.5102 12.5437 91.1689 7.42412C95.185 6.95677 99.2248 6.7227 103.268 6.72311Z" fill="#713FFD"/>
<g filter="url(#filter0_f_7_11959)">
<path d="M173.339 38.8964C150.095 17.9669 119.644 13.8916 105.325 29.7941C91.0065 45.6965 98.2424 75.5547 121.487 96.4842C144.732 117.414 175.182 121.489 189.501 105.586C203.82 89.6841 196.584 59.8259 173.339 38.8964Z" fill="#A586FC"/>
</g>
<g filter="url(#filter1_d_7_11959)">
<path d="M302.345 278.002H110.913C92.3426 277.988 74.4976 270.791 61.1137 257.917C47.7298 245.044 39.8447 227.492 39.1092 208.936C38.3737 190.38 44.8448 172.259 57.1677 158.366C69.4906 144.473 86.71 135.886 105.221 134.402C107.861 115.762 116.278 98.419 129.289 84.8123C142.299 71.2056 159.248 62.0204 177.752 58.5488C196.255 55.0772 215.381 57.4939 232.439 65.4591C249.497 73.4243 263.628 86.537 272.845 102.952C289.75 97.1005 308.015 96.4167 325.31 100.988C342.605 105.559 358.146 115.179 369.952 128.619C381.757 142.06 389.292 158.712 391.594 176.452C393.896 194.193 390.862 212.217 382.879 228.225C378.194 242.69 369.047 255.299 356.751 264.242C344.455 273.185 329.641 278.002 314.437 278.002H302.345Z" fill="url(#paint0_linear_7_11959)"/>
<path d="M314.437 277.002C322.157 277.002 329.748 275.769 336.998 273.338C344.009 270.987 350.59 267.557 356.56 263.142C362.462 258.777 367.635 253.549 371.936 247.603C376.29 241.582 379.652 234.959 381.928 227.918L381.951 227.845L381.985 227.778C385.011 221.73 387.341 215.333 388.911 208.763C390.526 202.003 391.345 195.017 391.345 188.002C391.345 181.963 390.737 175.928 389.537 170.064C388.368 164.351 386.623 158.73 384.352 153.36C382.121 148.086 379.361 143 376.146 138.242C372.962 133.529 369.306 129.097 365.278 125.07C361.25 121.042 356.819 117.385 352.106 114.201C347.348 110.987 342.261 108.226 336.988 105.996C331.617 103.724 325.997 101.979 320.283 100.81C314.42 99.6103 308.385 99.0019 302.345 99.0019C292.346 99.0019 282.531 100.648 273.172 103.893L272.383 104.167L271.973 103.439C264.357 89.8968 253.279 78.5241 239.937 70.5503C233.189 66.5177 225.94 63.4015 218.391 61.2882C210.602 59.1079 202.512 58.0024 194.345 58.0024C183.361 58.0024 172.638 59.9794 162.475 63.8785C152.657 67.6451 143.65 73.0862 135.705 80.0504C127.806 86.9747 121.251 95.1446 116.221 104.333C111.069 113.748 107.701 123.91 106.211 134.537L106.1 135.333L105.299 135.396C96.3408 136.097 87.7219 138.455 79.6818 142.406C71.8694 146.244 64.8932 151.436 58.947 157.837C46.7289 170.989 40 188.126 40 206.089C40 215.663 41.8748 224.949 45.5723 233.691C47.3495 237.893 49.5491 241.946 52.1102 245.736C54.6472 249.492 57.5607 253.023 60.7699 256.232C63.9791 259.441 67.5104 262.355 71.2655 264.892C75.0565 267.453 79.109 269.653 83.3106 271.43C92.0525 275.127 101.339 277.002 110.913 277.002H302.345H314.437ZM314.437 278.002H302.345H110.913C71.1966 278.002 39 245.805 39 206.089C39 168.288 68.1646 137.299 105.221 134.399C111.35 90.6598 148.917 57.0024 194.345 57.0024C228.048 57.0024 257.422 75.5257 272.845 102.948C282.087 99.7431 292.012 98.0019 302.345 98.0019C352.051 98.0019 392.345 138.297 392.345 188.002C392.345 202.458 388.936 216.121 382.879 228.225C373.544 257.111 346.431 278.002 314.437 278.002Z" fill="white" fill-opacity="0.5"/>
</g>
<defs>
<filter id="filter0_f_7_11959" x="77.9738" y="0.0932617" width="138.879" height="135.194" filterUnits="userSpaceOnUse" color-interpolation-filters="sRGB">
<feFlood flood-opacity="0" result="BackgroundImageFix"/>
<feBlend mode="normal" in="SourceGraphic" in2="BackgroundImageFix" result="shape"/>
<feGaussianBlur stdDeviation="10" result="effect1_foregroundBlur_7_11959"/>
</filter>
<filter id="filter1_d_7_11959" x="19" y="29.0024" width="413.345" height="281" filterUnits="userSpaceOnUse" color-interpolation-filters="sRGB">
<feFlood flood-opacity="0" result="BackgroundImageFix"/>
<feColorMatrix in="SourceAlpha" type="matrix" values="0 0 0 0 0 0 0 0 0 0 0 0 0 0 0 0 0 0 127 0" result="hardAlpha"/>
<feOffset dx="10" dy="2"/>
<feGaussianBlur stdDeviation="15"/>
<feColorMatrix type="matrix" values="0 0 0 0 0.258824 0 0 0 0 0.627451 0 0 0 0 0.941176 0 0 0 0.596 0"/>
<feBlend mode="normal" in2="BackgroundImageFix" result="effect1_dropShadow_7_11959"/>
<feBlend mode="normal" in="SourceGraphic" in2="effect1_dropShadow_7_11959" result="shape"/>
</filter>
<linearGradient id="paint0_linear_7_11959" x1="215.698" y1="57.0049" x2="318.341" y2="305.169" gradientUnits="userSpaceOnUse">
<stop stop-color="white" stop-opacity="0.604"/>
<stop offset="1" stop-color="white" stop-opacity="0.2"/>
</linearGradient>
</defs>
</svg>
