<svg width="252" height="263" viewBox="0 0 252 263" fill="none" stroke="42A0F0" xmlns="http://www.w3.org/2000/svg">
<path d="M126.891 41.2209L126.891 237.324" stroke="#42A0F0" stroke-width="10" stroke-linecap="round"/>
<path d="M126.499 89.1579L160.272 54.2949" stroke="#42A0F0" stroke-width="10" stroke-linecap="round"/>
<path d="M126.499 89.1579L91.6356 54.2949" stroke="#42A0F0" stroke-width="10" stroke-linecap="round"/>
<path d="M126.499 193.746L160.272 228.609" stroke="#42A0F0" stroke-width="10" stroke-linecap="round"/>
<path d="M126.499 193.746L91.6356 228.609" stroke="#42A0F0" stroke-width="10" stroke-linecap="round"/>
<path d="M211.337 91.0576L41.507 189.109" stroke="#42A0F0" stroke-width="10" stroke-linecap="round"/>
<path d="M169.626 114.687L216.705 126.503" stroke="#42A0F0" stroke-width="10" stroke-linecap="round"/>
<path d="M169.626 114.687L182.387 67.063" stroke="#42A0F0" stroke-width="10" stroke-linecap="round"/>
<path d="M79.0506 166.98L65.7449 213.66" stroke="#42A0F0" stroke-width="10" stroke-linecap="round"/>
<path d="M79.0506 166.981L31.4269 154.22" stroke="#42A0F0" stroke-width="10" stroke-linecap="round"/>
<path d="M210.401 189.11L40.571 91.0581" stroke="#42A0F0" stroke-width="10" stroke-linecap="round"/>
<path d="M169.082 164.801L182.388 211.481" stroke="#42A0F0" stroke-width="10" stroke-linecap="round"/>
<path d="M169.082 164.802L216.706 152.041" stroke="#42A0F0" stroke-width="10" stroke-linecap="round"/>
<path d="M78.5066 112.508L31.4279 124.324" stroke="#42A0F0" stroke-width="10" stroke-linecap="round"/>
<path d="M78.5066 112.508L65.7459 64.8839" stroke="#42A0F0" stroke-width="10" stroke-linecap="round"/>
<path d="M54.8836 2V15.394" stroke="#42A0F0" stroke-linecap="round"/>
<path d="M54.5936 5.26796L56.7726 4.17896" stroke="#42A0F0" stroke-linecap="round"/>
<path d="M54.5936 5.26796L51.3256 4.17896" stroke="#42A0F0" stroke-linecap="round"/>
<path d="M54.5936 12.895L56.7726 13.984" stroke="#42A0F0" stroke-linecap="round"/>
<path d="M54.5936 12.895L51.3256 13.984" stroke="#42A0F0" stroke-linecap="round"/>
<path d="M60.6516 5.40442L49.0521 12.1014" stroke="#42A0F0" stroke-linecap="round"/>
<path d="M57.8028 7.01801L61.0183 7.82544" stroke="#42A0F0" stroke-linecap="round"/>
<path d="M57.8028 7.01801L58.6743 3.7655" stroke="#42A0F0" stroke-linecap="round"/>
<path d="M51.6159 10.59L50.7074 13.7784" stroke="#42A0F0" stroke-linecap="round"/>
<path d="M51.6159 10.59L48.3634 9.71845" stroke="#42A0F0" stroke-linecap="round"/>
<path d="M60.5876 12.1014L48.9881 5.40444" stroke="#42A0F0" stroke-linecap="round"/>
<path d="M57.7658 10.441L58.6743 13.6294" stroke="#42A0F0" stroke-linecap="round"/>
<path d="M57.7658 10.441L61.0183 9.56946" stroke="#42A0F0" stroke-linecap="round"/>
<path d="M51.5789 6.86902L48.3634 7.67644" stroke="#42A0F0" stroke-linecap="round"/>
<path d="M51.5789 6.86901L50.7074 3.61651" stroke="#42A0F0" stroke-linecap="round"/>
<path d="M239.67 31.655V54.615" stroke="#42A0F0" stroke-linecap="round"/>
<path d="M238.713 36.8629L243.071 35.7739" stroke="#42A0F0" stroke-linecap="round"/>
<path d="M238.713 36.8629L233.266 35.7739" stroke="#42A0F0" stroke-linecap="round"/>
<path d="M238.713 49.937L243.071 52.116" stroke="#42A0F0" stroke-linecap="round"/>
<path d="M238.713 49.937L233.266 52.116" stroke="#42A0F0" stroke-linecap="round"/>
<path d="M249.557 37.49L229.673 48.97" stroke="#42A0F0" stroke-linecap="round"/>
<path d="M244.673 40.2566L250.185 41.6398" stroke="#42A0F0" stroke-linecap="round"/>
<path d="M244.673 40.2565L246.167 34.6804" stroke="#42A0F0" stroke-linecap="round"/>
<path d="M234.068 46.3792L232.51 51.8444" stroke="#42A0F0" stroke-linecap="round"/>
<path d="M234.068 46.3791L228.492 44.885" stroke="#42A0F0" stroke-linecap="round"/>
<path d="M249.447 48.9709L229.563 37.4909" stroke="#42A0F0" stroke-linecap="round"/>
<path d="M244.609 46.1248L246.167 51.59" stroke="#42A0F0" stroke-linecap="round"/>
<path d="M244.609 46.1247L250.185 44.6306" stroke="#42A0F0" stroke-linecap="round"/>
<path d="M234.004 40.0022L228.492 41.3855" stroke="#42A0F0" stroke-linecap="round"/>
<path d="M234.004 40.0022L232.51 34.426" stroke="#42A0F0" stroke-linecap="round"/>
<path d="M225.527 200.522V219.372" stroke="#42A0F0" stroke-linecap="round"/>
<path d="M224.55 204.64L227.818 203.551" stroke="#42A0F0" stroke-linecap="round"/>
<path d="M224.55 204.64L220.192 203.551" stroke="#42A0F0" stroke-linecap="round"/>
<path d="M224.55 215.535L227.818 217.714" stroke="#42A0F0" stroke-linecap="round"/>
<path d="M224.55 215.535L220.192 217.714" stroke="#42A0F0" stroke-linecap="round"/>
<path d="M233.644 205.313L217.32 214.738" stroke="#42A0F0" stroke-linecap="round"/>
<path d="M229.634 207.584L234.16 208.72" stroke="#42A0F0" stroke-linecap="round"/>
<path d="M229.634 207.584L230.861 203.006" stroke="#42A0F0" stroke-linecap="round"/>
<path d="M220.928 212.611L219.649 217.097" stroke="#42A0F0" stroke-linecap="round"/>
<path d="M220.928 212.611L216.351 211.384" stroke="#42A0F0" stroke-linecap="round"/>
<path d="M233.554 214.738L217.23 205.313" stroke="#42A0F0" stroke-linecap="round"/>
<path d="M229.582 212.401L230.862 216.888" stroke="#42A0F0" stroke-linecap="round"/>
<path d="M229.582 212.401L234.16 211.175" stroke="#42A0F0" stroke-linecap="round"/>
<path d="M220.876 207.375L216.351 208.51" stroke="#42A0F0" stroke-linecap="round"/>
<path d="M220.876 207.374L219.65 202.797" stroke="#42A0F0" stroke-linecap="round"/>
<path d="M70.7326 244.1V260.705" stroke="#42A0F0" stroke-linecap="round"/>
<path d="M69.8456 248.218L73.1136 247.129" stroke="#42A0F0" stroke-linecap="round"/>
<path d="M69.8456 248.218L66.5776 247.129" stroke="#42A0F0" stroke-linecap="round"/>
<path d="M69.8456 256.934L73.1136 259.113" stroke="#42A0F0" stroke-linecap="round"/>
<path d="M69.8456 256.934L66.5776 259.113" stroke="#42A0F0" stroke-linecap="round"/>
<path d="M77.8831 248.32L63.5028 256.623" stroke="#42A0F0" stroke-linecap="round"/>
<path d="M74.3514 250.321L78.3379 251.322" stroke="#42A0F0" stroke-linecap="round"/>
<path d="M74.3514 250.321L75.4319 246.289" stroke="#42A0F0" stroke-linecap="round"/>
<path d="M66.6819 254.749L65.5554 258.702" stroke="#42A0F0" stroke-linecap="round"/>
<path d="M66.6819 254.749L62.6494 253.669" stroke="#42A0F0" stroke-linecap="round"/>
<path d="M77.8041 256.622L63.4238 248.32" stroke="#42A0F0" stroke-linecap="round"/>
<path d="M74.3054 254.564L75.4319 258.517" stroke="#42A0F0" stroke-linecap="round"/>
<path d="M74.3054 254.564L78.3379 253.484" stroke="#42A0F0" stroke-linecap="round"/>
<path d="M66.6359 250.136L62.6494 251.137" stroke="#42A0F0" stroke-linecap="round"/>
<path d="M66.6359 250.136L65.5554 246.104" stroke="#42A0F0" stroke-linecap="round"/>
<path d="M8.07564 174.374V187.842" stroke="#42A0F0" stroke-linecap="round"/>
<path d="M7.74664 177.403L9.92564 176.314" stroke="#42A0F0" stroke-linecap="round"/>
<path d="M7.74664 177.403L4.47864 176.314" stroke="#42A0F0" stroke-linecap="round"/>
<path d="M7.74664 185.029L9.92564 186.118" stroke="#42A0F0" stroke-linecap="round"/>
<path d="M7.74664 185.029L4.47864 186.118" stroke="#42A0F0" stroke-linecap="round"/>
<path d="M13.8741 177.797L2.2105 184.531" stroke="#42A0F0" stroke-linecap="round"/>
<path d="M11.0097 179.419L14.2424 180.23" stroke="#42A0F0" stroke-linecap="round"/>
<path d="M11.0097 179.419L11.8859 176.149" stroke="#42A0F0" stroke-linecap="round"/>
<path d="M4.78903 183.011L3.87527 186.216" stroke="#42A0F0" stroke-linecap="round"/>
<path d="M4.78903 183.011L1.51876 182.135" stroke="#42A0F0" stroke-linecap="round"/>
<path d="M13.8101 184.531L2.1465 177.797" stroke="#42A0F0" stroke-linecap="round"/>
<path d="M10.9727 182.861L11.8864 186.067" stroke="#42A0F0" stroke-linecap="round"/>
<path d="M10.9727 182.861L14.2429 181.985" stroke="#42A0F0" stroke-linecap="round"/>
<path d="M4.75201 179.27L1.51925 180.081" stroke="#42A0F0" stroke-linecap="round"/>
<path d="M4.75202 179.27L3.87576 176" stroke="#42A0F0" stroke-linecap="round"/>
</svg>
