<svg width="301" height="156" viewBox="0 0 301 156" fill="none" xmlns="http://www.w3.org/2000/svg">
<mask id="mask0_7_10864" style="mask-type:alpha" maskUnits="userSpaceOnUse" x="0" y="0" width="301" height="156">
<rect width="301" height="156" fill="#C4C4C4"/>
</mask>
<g mask="url(#mask0_7_10864)">
<path d="M150 250.825C209.094 250.825 257 202.919 257 143.825C257 84.7305 209.094 36.825 150 36.825C90.9055 36.825 43 84.7305 43 143.825C43 202.919 90.9055 250.825 150 250.825Z" fill="#FA9E42"/>
<g filter="url(#filter0_f_7_10864)">
<path d="M138.57 122.626C176.001 102.745 197.174 69.3637 185.863 48.0673C174.551 26.7709 135.038 25.6234 97.6078 45.5043C60.1774 65.3853 39.0038 98.7661 50.3152 120.063C61.6267 141.359 101.14 142.506 138.57 122.626Z" fill="#F8E36F"/>
</g>
<path d="M182 143.435H122V156.435H182V143.435Z" fill="#FA9F42"/>
</g>
<defs>
<filter id="filter0_f_7_10864" x="27.2694" y="11.313" width="181.639" height="145.504" filterUnits="userSpaceOnUse" color-interpolation-filters="sRGB">
<feFlood flood-opacity="0" result="BackgroundImageFix"/>
<feBlend mode="normal" in="SourceGraphic" in2="BackgroundImageFix" result="shape"/>
<feGaussianBlur stdDeviation="10" result="effect1_foregroundBlur_7_10864"/>
</filter>
</defs>
</svg>
